<svg width="192" height="60" viewBox="0 0 192 60" fill="none" xmlns="http://www.w3.org/2000/svg">
<path d="M74.7444 41.1941C72.9854 41.1941 71.3014 40.9474 69.6926 40.454C68.0837 39.9392 66.8074 39.2849 65.8635 38.4912L67.3115 35.2413C68.2124 35.9492 69.3279 36.5391 70.6579 37.0111C71.9879 37.483 73.35 37.719 74.7444 37.719C75.9242 37.719 76.8788 37.5903 77.6081 37.3328C78.3375 37.0754 78.8738 36.7322 79.217 36.3032C79.5602 35.8527 79.7318 35.3486 79.7318 34.7908C79.7318 34.1044 79.4851 33.5574 78.9917 33.1498C78.4984 32.7208 77.8548 32.3883 77.0611 32.1523C76.2889 31.8949 75.4201 31.6589 74.4548 31.4444C73.5109 31.2299 72.5563 30.9832 71.591 30.7044C70.6472 30.404 69.7784 30.0286 68.9847 29.5782C68.2124 29.1062 67.5796 28.4841 67.0862 27.7119C66.5928 26.9396 66.3462 25.9529 66.3462 24.7516C66.3462 23.5289 66.6679 22.4134 67.3115 21.4052C67.9765 20.3755 68.974 19.5604 70.3039 18.9597C71.6554 18.3376 73.3608 18.0266 75.4201 18.0266C76.7715 18.0266 78.1122 18.1982 79.4422 18.5414C80.7722 18.8846 81.9306 19.378 82.9174 20.0216L81.5981 23.2715C80.5899 22.6708 79.5495 22.2311 78.4769 21.9522C77.4043 21.6519 76.3747 21.5017 75.3879 21.5017C74.2295 21.5017 73.2857 21.6411 72.5563 21.92C71.8484 22.1989 71.3229 22.5636 70.9797 23.014C70.6579 23.4645 70.497 23.9793 70.497 24.5585C70.497 25.245 70.733 25.8027 71.2049 26.2317C71.6983 26.6393 72.3311 26.9611 73.1033 27.1971C73.897 27.433 74.7766 27.669 75.7419 27.905C76.7072 28.1195 77.6618 28.3662 78.6056 28.645C79.5709 28.9239 80.4397 29.2886 81.212 29.739C82.0057 30.1895 82.6385 30.8009 83.1104 31.5731C83.6038 32.3454 83.8505 33.3214 83.8505 34.5013C83.8505 35.7025 83.518 36.818 82.853 37.8477C82.2095 38.8559 81.212 39.671 79.8605 40.2931C78.5091 40.8938 76.8037 41.1941 74.7444 41.1941ZM88.7138 47.3399C87.8771 47.3399 87.0405 47.2005 86.2039 46.9216C85.3673 46.6427 84.6702 46.2566 84.1124 45.7632L85.7213 42.8029C86.1289 43.1676 86.5901 43.4572 87.1049 43.6717C87.6197 43.8862 88.1453 43.9935 88.6816 43.9935C89.4109 43.9935 90.0008 43.8112 90.4513 43.4465C90.9018 43.0818 91.3201 42.4704 91.7062 41.6124L92.7037 39.36L93.0255 38.8773L99.5252 23.6898H103.386L95.3422 42.2559C94.8059 43.543 94.2053 44.562 93.5403 45.3128C92.8968 46.0635 92.1674 46.5891 91.3523 46.8894C90.5586 47.1897 89.6791 47.3399 88.7138 47.3399ZM92.2532 41.4837L84.4986 23.6898H88.6816L94.9883 38.5234L92.2532 41.4837ZM115.65 23.4967C117.023 23.4967 118.246 23.7648 119.318 24.3011C120.412 24.8374 121.27 25.6633 121.892 26.7788C122.514 27.8728 122.825 29.2886 122.825 31.0261V40.8723H118.803V31.541C118.803 30.0179 118.439 28.881 117.709 28.1302C117.001 27.3794 116.004 27.004 114.717 27.004C113.773 27.004 112.936 27.1971 112.207 27.5832C111.478 27.9693 110.909 28.5485 110.502 29.3207C110.116 30.0715 109.922 31.0261 109.922 32.1845V40.8723H105.9V23.6898H109.729V28.3233L109.054 26.9075C109.654 25.8134 110.523 24.9768 111.66 24.3977C112.818 23.797 114.148 23.4967 115.65 23.4967ZM135.843 41.0976C134.041 41.0976 132.432 40.7222 131.016 39.9714C129.622 39.1991 128.528 38.148 127.734 36.818C126.94 35.488 126.543 33.9757 126.543 32.281C126.543 30.5649 126.94 29.0526 127.734 27.7441C128.528 26.4141 129.622 25.3737 131.016 24.6229C132.432 23.8721 134.041 23.4967 135.843 23.4967C137.516 23.4967 138.985 23.8399 140.251 24.5264C141.538 25.1914 142.514 26.1781 143.179 27.4867L140.09 29.2886C139.575 28.4734 138.942 27.8728 138.192 27.4867C137.462 27.1005 136.668 26.9075 135.81 26.9075C134.824 26.9075 133.933 27.122 133.14 27.551C132.346 27.98 131.724 28.6021 131.273 29.4173C130.823 30.211 130.598 31.1656 130.598 32.281C130.598 33.3965 130.823 34.3618 131.273 35.177C131.724 35.9707 132.346 36.582 133.14 37.0111C133.933 37.4401 134.824 37.6546 135.81 37.6546C136.668 37.6546 137.462 37.4615 138.192 37.0754C138.942 36.6893 139.575 36.0887 140.09 35.2735L143.179 37.0754C142.514 38.3625 141.538 39.36 140.251 40.0679C138.985 40.7543 137.516 41.0976 135.843 41.0976Z" fill="#303030"/>
<path d="M156.727 41.1941C153.638 41.1941 151.214 40.3253 149.455 38.5877C147.718 36.8502 146.849 34.3404 146.849 31.0583V18.3484H151.032V30.8974C151.032 33.2142 151.525 34.8981 152.512 35.9492C153.52 37.0003 154.936 37.5259 156.759 37.5259C158.583 37.5259 159.988 37.0003 160.975 35.9492C161.961 34.8981 162.455 33.2142 162.455 30.8974V18.3484H166.573V31.0583C166.573 34.3404 165.694 36.8502 163.935 38.5877C162.197 40.3253 159.795 41.1941 156.727 41.1941ZM181.57 41.0976C180.176 41.0976 178.899 40.7758 177.741 40.1322C176.604 39.4887 175.692 38.5234 175.006 37.2363C174.341 35.9278 174.008 34.276 174.008 32.281C174.008 30.2646 174.33 28.6128 174.974 27.3258C175.639 26.0387 176.54 25.0841 177.677 24.462C178.813 23.8185 180.111 23.4967 181.57 23.4967C183.265 23.4967 184.756 23.8614 186.043 24.5907C187.351 25.3201 188.381 26.339 189.132 27.6475C189.904 28.9561 190.29 30.5006 190.29 32.281C190.29 34.0615 189.904 35.6167 189.132 36.9467C188.381 38.2552 187.351 39.2742 186.043 40.0035C184.756 40.7329 183.265 41.0976 181.57 41.0976ZM172.046 47.1147V23.6898H175.875V27.7441L175.746 32.3132L176.068 36.8824V47.1147H172.046ZM181.12 37.6546C182.085 37.6546 182.943 37.4401 183.694 37.0111C184.466 36.582 185.077 35.9599 185.528 35.1448C185.978 34.3296 186.203 33.3751 186.203 32.281C186.203 31.1656 185.978 30.211 185.528 29.4173C185.077 28.6021 184.466 27.98 183.694 27.551C182.943 27.122 182.085 26.9075 181.12 26.9075C180.154 26.9075 179.285 27.122 178.513 27.551C177.741 27.98 177.13 28.6021 176.679 29.4173C176.229 30.211 176.003 31.1656 176.003 32.281C176.003 33.3751 176.229 34.3296 176.679 35.1448C177.13 35.9599 177.741 36.582 178.513 37.0111C179.285 37.4401 180.154 37.6546 181.12 37.6546Z" fill="#FF9C37"/>
<rect opacity="0.3" width="51.4106" height="51.3797" rx="10.3797" transform="matrix(0.984827 0.173541 -0.173756 0.984789 8.92752 0.23999)" fill="#FF9C37"/>
<rect x="6.64392" y="6.87964" width="46.2704" height="46.2409" rx="10.3797" fill="#FF9C37"/>
<path d="M15.6407 34.7064C18.0828 32.1803 24.3637 29.4535 29.3933 33.936C35.1771 39.0905 41.218 39.6337 43.9171 36.7616" stroke="white" stroke-width="1.29746"/>
<path d="M15.6407 29.5685C18.0828 27.0424 24.3637 24.3156 29.3933 28.798C35.1771 33.9526 41.218 34.4957 43.9171 31.6237" stroke="white" stroke-width="1.29746"/>
<path d="M15.6407 24.4306C18.0828 21.9044 24.3637 19.1777 29.3933 23.6601C35.1771 28.8146 41.218 29.3578 43.9171 26.4857" stroke="white" stroke-width="1.29746"/>
<path d="M65.5179 12.9683V7.15563H67.9093C68.4242 7.15563 68.8643 7.23867 69.2296 7.40474C69.6005 7.57082 69.8856 7.80886 70.0849 8.11887C70.2842 8.42887 70.3839 8.79701 70.3839 9.22327C70.3839 9.64953 70.2842 10.0177 70.0849 10.3277C69.8856 10.6377 69.6005 10.8757 69.2296 11.0418C68.8643 11.2079 68.4242 11.2909 67.9093 11.2909H66.1157L66.5973 10.7844V12.9683H65.5179ZM66.5973 10.9006L66.1157 10.3775H67.8595C68.3356 10.3775 68.6927 10.2778 68.9307 10.0786C69.1743 9.87373 69.2961 9.58863 69.2961 9.22327C69.2961 8.85236 69.1743 8.56727 68.9307 8.36798C68.6927 8.16869 68.3356 8.06904 67.8595 8.06904H66.1157L66.5973 7.5376V10.9006ZM73.3389 13.0264C72.885 13.0264 72.4808 12.9295 72.1265 12.7358C71.7723 12.5365 71.4927 12.2652 71.2879 11.922C71.083 11.5788 70.9806 11.1885 70.9806 10.7512C70.9806 10.3083 71.083 9.91801 71.2879 9.58033C71.4927 9.23711 71.7723 8.96862 72.1265 8.77486C72.4808 8.58111 72.885 8.48423 73.3389 8.48423C73.7984 8.48423 74.2053 8.58111 74.5596 8.77486C74.9194 8.96862 75.1989 9.23434 75.3982 9.57202C75.6031 9.90971 75.7055 10.3028 75.7055 10.7512C75.7055 11.1885 75.6031 11.5788 75.3982 11.922C75.1989 12.2652 74.9194 12.5365 74.5596 12.7358C74.2053 12.9295 73.7984 13.0264 73.3389 13.0264ZM73.3389 12.1379C73.5935 12.1379 73.8205 12.0825 74.0198 11.9718C74.2191 11.8611 74.3741 11.7006 74.4848 11.4902C74.6011 11.2798 74.6592 11.0335 74.6592 10.7512C74.6592 10.4633 74.6011 10.2169 74.4848 10.0121C74.3741 9.80176 74.2191 9.64122 74.0198 9.5305C73.8205 9.41979 73.5963 9.36443 73.3472 9.36443C73.0926 9.36443 72.8656 9.41979 72.6663 9.5305C72.4725 9.64122 72.3175 9.80176 72.2013 10.0121C72.085 10.2169 72.0269 10.4633 72.0269 10.7512C72.0269 11.0335 72.085 11.2798 72.2013 11.4902C72.3175 11.7006 72.4725 11.8611 72.6663 11.9718C72.8656 12.0825 73.0898 12.1379 73.3389 12.1379ZM77.5562 12.9683L75.9287 8.53405H76.9085L78.3036 12.4451H77.8386L79.3 8.53405H80.1719L81.5919 12.4451H81.1352L82.5717 8.53405H83.4934L81.8576 12.9683H80.8611L79.5657 9.50559H79.873L78.5527 12.9683H77.5562ZM86.1697 13.0264C85.677 13.0264 85.2452 12.9295 84.8743 12.7358C84.5089 12.5365 84.2239 12.2652 84.019 11.922C83.8197 11.5788 83.7201 11.1885 83.7201 10.7512C83.7201 10.3083 83.817 9.91801 84.0107 9.58033C84.21 9.23711 84.4813 8.96862 84.8245 8.77486C85.1732 8.58111 85.5691 8.48423 86.0119 8.48423C86.4437 8.48423 86.8285 8.57834 87.1662 8.76656C87.5038 8.95478 87.7696 9.2205 87.9633 9.56372C88.1571 9.90694 88.2539 10.3111 88.2539 10.7761C88.2539 10.8204 88.2512 10.8702 88.2456 10.9255C88.2456 10.9809 88.2429 11.0335 88.2373 11.0833H84.5422V10.3941H87.6893L87.2824 10.61C87.2879 10.3553 87.2354 10.1311 87.1246 9.93739C87.0139 9.74363 86.8617 9.5914 86.6679 9.48068C86.4797 9.36997 86.261 9.31461 86.0119 9.31461C85.7573 9.31461 85.5331 9.36997 85.3393 9.48068C85.1511 9.5914 85.0016 9.7464 84.8909 9.94569C84.7857 10.1394 84.7332 10.3692 84.7332 10.6349V10.801C84.7332 11.0667 84.794 11.302 84.9158 11.5068C85.0376 11.7116 85.2092 11.8694 85.4307 11.9801C85.6521 12.0908 85.9067 12.1462 86.1946 12.1462C86.4437 12.1462 86.6679 12.1074 86.8672 12.0299C87.0665 11.9524 87.2437 11.8306 87.3987 11.6646L87.955 12.304C87.7557 12.5365 87.5038 12.7164 87.1994 12.8437C86.9004 12.9655 86.5572 13.0264 86.1697 13.0264ZM89.251 12.9683V8.53405H90.2391V9.75471L90.1229 9.39764C90.2557 9.09871 90.4633 8.87174 90.7457 8.71674C91.0335 8.56173 91.3906 8.48423 91.8168 8.48423V9.47238C91.7726 9.46131 91.731 9.45577 91.6923 9.45577C91.6535 9.45024 91.6148 9.44747 91.576 9.44747C91.183 9.44747 90.8702 9.56372 90.6377 9.79622C90.4052 10.0232 90.2889 10.3636 90.2889 10.8176V12.9683H89.251ZM94.7411 13.0264C94.2484 13.0264 93.8166 12.9295 93.4457 12.7358C93.0803 12.5365 92.7952 12.2652 92.5904 11.922C92.3911 11.5788 92.2915 11.1885 92.2915 10.7512C92.2915 10.3083 92.3883 9.91801 92.5821 9.58033C92.7814 9.23711 93.0526 8.96862 93.3959 8.77486C93.7446 8.58111 94.1404 8.48423 94.5833 8.48423C95.0151 8.48423 95.3998 8.57834 95.7375 8.76656C96.0752 8.95478 96.3409 9.2205 96.5347 9.56372C96.7284 9.90694 96.8253 10.3111 96.8253 10.7761C96.8253 10.8204 96.8225 10.8702 96.817 10.9255C96.817 10.9809 96.8142 11.0335 96.8087 11.0833H93.1135V10.3941H96.2607L95.8538 10.61C95.8593 10.3553 95.8067 10.1311 95.696 9.93739C95.5853 9.74363 95.433 9.5914 95.2393 9.48068C95.0511 9.36997 94.8324 9.31461 94.5833 9.31461C94.3286 9.31461 94.1044 9.36997 93.9107 9.48068C93.7225 9.5914 93.573 9.7464 93.4623 9.94569C93.3571 10.1394 93.3045 10.3692 93.3045 10.6349V10.801C93.3045 11.0667 93.3654 11.302 93.4872 11.5068C93.609 11.7116 93.7806 11.8694 94.002 11.9801C94.2235 12.0908 94.4781 12.1462 94.766 12.1462C95.0151 12.1462 95.2393 12.1074 95.4386 12.0299C95.6379 11.9524 95.815 11.8306 95.97 11.6646L96.5264 12.304C96.3271 12.5365 96.0752 12.7164 95.7707 12.8437C95.4718 12.9655 95.1286 13.0264 94.7411 13.0264ZM99.699 13.0264C99.2727 13.0264 98.888 12.9323 98.5448 12.7441C98.2071 12.5503 97.9414 12.2846 97.7476 11.9469C97.5539 11.6092 97.457 11.2106 97.457 10.7512C97.457 10.2917 97.5539 9.8931 97.7476 9.55542C97.9414 9.21773 98.2071 8.95478 98.5448 8.76656C98.888 8.57834 99.2727 8.48423 99.699 8.48423C100.07 8.48423 100.402 8.56727 100.695 8.73334C100.989 8.89388 101.221 9.14023 101.393 9.47238C101.565 9.80453 101.65 10.2308 101.65 10.7512C101.65 11.266 101.567 11.6923 101.401 12.0299C101.235 12.3621 101.005 12.6112 100.712 12.7773C100.419 12.9434 100.081 13.0264 99.699 13.0264ZM99.8235 12.1379C100.073 12.1379 100.294 12.0825 100.488 11.9718C100.687 11.8611 100.845 11.7006 100.961 11.4902C101.083 11.2798 101.144 11.0335 101.144 10.7512C101.144 10.4633 101.083 10.2169 100.961 10.0121C100.845 9.80176 100.687 9.64122 100.488 9.5305C100.294 9.41979 100.073 9.36443 99.8235 9.36443C99.5744 9.36443 99.3502 9.41979 99.1509 9.5305C98.9572 9.64122 98.7994 9.80176 98.6776 10.0121C98.5614 10.2169 98.5033 10.4633 98.5033 10.7512C98.5033 11.0335 98.5614 11.2798 98.6776 11.4902C98.7994 11.7006 98.9572 11.8611 99.1509 11.9718C99.3502 12.0825 99.5744 12.1379 99.8235 12.1379ZM101.169 12.9683V11.922L101.21 10.7429L101.127 9.56372V6.80687H102.157V12.9683H101.169ZM108.276 13.0264C107.899 13.0264 107.565 12.9434 107.271 12.7773C106.978 12.6112 106.745 12.3621 106.574 12.0299C106.408 11.6923 106.324 11.266 106.324 10.7512C106.324 10.2308 106.41 9.80453 106.582 9.47238C106.759 9.14023 106.994 8.89388 107.288 8.73334C107.587 8.56727 107.916 8.48423 108.276 8.48423C108.713 8.48423 109.098 8.57834 109.43 8.76656C109.768 8.95478 110.033 9.21773 110.227 9.55542C110.427 9.8931 110.526 10.2917 110.526 10.7512C110.526 11.2106 110.427 11.6092 110.227 11.9469C110.033 12.2846 109.768 12.5503 109.43 12.7441C109.098 12.9323 108.713 13.0264 108.276 13.0264ZM105.818 12.9683V6.80687H106.856V9.56372L106.773 10.7429L106.806 11.922V12.9683H105.818ZM108.16 12.1379C108.409 12.1379 108.63 12.0825 108.824 11.9718C109.023 11.8611 109.181 11.7006 109.297 11.4902C109.413 11.2798 109.472 11.0335 109.472 10.7512C109.472 10.4633 109.413 10.2169 109.297 10.0121C109.181 9.80176 109.023 9.64122 108.824 9.5305C108.63 9.41979 108.409 9.36443 108.16 9.36443C107.911 9.36443 107.686 9.41979 107.487 9.5305C107.288 9.64122 107.13 9.80176 107.014 10.0121C106.897 10.2169 106.839 10.4633 106.839 10.7512C106.839 11.0335 106.897 11.2798 107.014 11.4902C107.13 11.7006 107.288 11.8611 107.487 11.9718C107.686 12.0825 107.911 12.1379 108.16 12.1379ZM111.754 14.6373C111.538 14.6373 111.323 14.6013 111.107 14.5294C110.891 14.4574 110.711 14.3578 110.567 14.2304L110.982 13.4665C111.087 13.5606 111.206 13.6353 111.339 13.6907C111.472 13.746 111.608 13.7737 111.746 13.7737C111.934 13.7737 112.086 13.7267 112.203 13.6326C112.319 13.5385 112.427 13.3807 112.527 13.1592L112.784 12.578L112.867 12.4534L114.544 8.53405H115.541L113.465 13.3253C113.326 13.6575 113.171 13.9204 113 14.1142C112.834 14.3079 112.646 14.4436 112.435 14.5211C112.23 14.5986 112.003 14.6373 111.754 14.6373ZM112.668 13.126L110.667 8.53405H111.746L113.374 12.3621L112.668 13.126Z" fill="#303030"/>
</svg>
