<svg width="30" height="31" viewBox="0 0 30 31" fill="none" xmlns="http://www.w3.org/2000/svg">
<path d="M15 3.5C8.373 3.5 3 8.873 3 15.5C3 22.127 8.373 27.5 15 27.5C21.627 27.5 27 22.127 27 15.5C27 8.873 21.627 3.5 15 3.5ZM21.707 13.207L14.147 20.767C13.959 20.955 13.705 21.06 13.44 21.06C13.175 21.06 12.92 20.955 12.733 20.767L9.28 17.314C8.889 16.923 8.889 16.291 9.28 15.9C9.671 15.509 10.303 15.509 10.694 15.9L13.44 18.646L20.293 11.793C20.684 11.402 21.316 11.402 21.707 11.793C22.098 12.184 22.098 12.816 21.707 13.207Z" fill="#FF9C37"/>
</svg>
