<svg width="56" height="56" viewBox="0 0 56 56" fill="none" xmlns="http://www.w3.org/2000/svg">
<path d="M5.41666 27.1739C5.41666 33.2517 7.83108 39.0807 12.1288 43.3784C16.4265 47.6761 22.2554 50.0905 28.3333 50.0905C34.4112 50.0905 40.2401 47.6761 44.5379 43.3784C48.8356 39.0807 51.25 33.2517 51.25 27.1739C51.25 21.096 48.8356 15.267 44.5379 10.9693C40.2401 6.67163 34.4112 4.2572 28.3333 4.2572C22.2554 4.2572 16.4265 6.67163 12.1288 10.9693C7.83108 15.267 5.41666 21.096 5.41666 27.1739V27.1739Z" stroke="#FF9C37" stroke-width="4" stroke-linecap="round" stroke-linejoin="round"/>
<path d="M21.3332 32C21.3332 32.9889 21.7437 33.9556 22.5129 34.7779C23.282 35.6001 24.3753 36.241 25.6544 36.6194C26.9335 36.9978 28.3409 37.0969 29.6988 36.9039C31.0567 36.711 32.3039 36.2348 33.2829 35.5355C34.2619 34.8363 34.9286 33.9454 35.1987 32.9755C35.4688 32.0055 35.3301 31.0002 34.8003 30.0866C34.2705 29.173 33.3733 28.3921 32.2222 27.8427C31.071 27.2932 29.7176 27 28.3332 27C26.9487 27 25.5953 26.7068 24.4442 26.1574C23.293 25.6079 22.3958 24.827 21.866 23.9134C21.3362 22.9998 21.1976 21.9945 21.4677 21.0246C21.7378 20.0546 22.4044 19.1637 23.3834 18.4645C24.3624 17.7652 25.6097 17.289 26.9675 17.0961C28.3254 16.9031 29.7329 17.0022 31.0119 17.3806C32.291 17.759 33.3843 18.3999 34.1534 19.2222C34.9226 20.0444 35.3332 21.0111 35.3332 22" stroke="#FF9C37" stroke-width="4" stroke-linecap="round" stroke-linejoin="round"/>
<path d="M28.3332 15V39" stroke="#FF9C37" stroke-width="4" stroke-linecap="round" stroke-linejoin="round"/>
<path d="M28.3332 35V37" stroke="#FF9C37" stroke-width="4" stroke-linecap="round" stroke-linejoin="round"/>
</svg>
