<svg width="41" height="40" viewBox="0 0 41 40" fill="none" xmlns="http://www.w3.org/2000/svg">
<rect x="0.5" width="40" height="40" rx="14" fill="#FF9C37" fill-opacity="0.3"/>
<path d="M25.9173 30.8334H15.084C13.2889 30.8334 11.834 29.3784 11.834 27.5834V12.4167C11.834 10.6216 13.2889 9.16666 15.084 9.16666H22.6673L29.1673 15.6667V27.5834C29.1673 29.3784 27.7124 30.8334 25.9173 30.8334Z" fill="#FF9C37"/>
<path d="M22.6673 13.4999V9.1666L29.1673 15.6666H24.834C23.6369 15.6666 22.6673 14.697 22.6673 13.4999Z" fill="#BEBBC2"/>
<path d="M15.7415 25.4478C15.5187 25.4478 15.295 25.3707 15.1151 25.2127C14.7192 24.8663 14.6792 24.2647 15.0247 23.8697L18.3562 20.0623C18.5389 19.851 18.7807 19.7463 19.0843 19.7368C19.3632 19.7406 19.6259 19.8653 19.8049 20.0785L21.4382 22.0393L24.5165 18.19C24.8468 17.7807 25.4436 17.7122 25.8548 18.0415C26.265 18.3709 26.3317 18.9696 26.0033 19.3798L22.1959 24.139C22.017 24.3618 21.7476 24.4931 21.462 24.496C21.1641 24.5388 20.9043 24.3722 20.7215 24.1543L19.0558 22.1544L16.4582 25.1223C16.2697 25.3384 16.0061 25.4478 15.7415 25.4478Z" fill="white"/>
</svg>
