<svg width="56" height="56" viewBox="0 0 56 56" fill="none" xmlns="http://www.w3.org/2000/svg">
<path d="M28 50.9167C40.6565 50.9167 50.9167 40.6566 50.9167 28C50.9167 15.3435 40.6565 5.08337 28 5.08337C15.3435 5.08337 5.08332 15.3435 5.08332 28C5.08332 40.6566 15.3435 50.9167 28 50.9167Z" stroke="#FF9C37" stroke-width="4" stroke-linecap="round" stroke-linejoin="round"/>
<path d="M28 39.4583V28V39.4583Z" fill="#FF9C37"/>
<path d="M28 39.4583V28" stroke="#FF9C37" stroke-width="4" stroke-linecap="round" stroke-linejoin="round"/>
<path d="M28.0006 17.2982C27.7456 17.2982 27.4963 17.3738 27.2843 17.5155C27.0723 17.6572 26.907 17.8585 26.8094 18.0941C26.7119 18.3297 26.6863 18.5889 26.7361 18.839C26.7858 19.0891 26.9086 19.3188 27.0889 19.4992C27.2692 19.6795 27.499 19.8022 27.7491 19.852C27.9991 19.9017 28.2584 19.8762 28.494 19.7786C28.7295 19.681 28.9309 19.5158 29.0726 19.3038C29.2142 19.0918 29.2899 18.8425 29.2899 18.5875C29.2903 18.4181 29.2573 18.2502 29.1926 18.0936C29.128 17.9369 29.0331 17.7946 28.9132 17.6748C28.7934 17.555 28.6511 17.4601 28.4945 17.3954C28.3379 17.3308 28.17 17.2978 28.0006 17.2982Z" fill="#FF9C37" stroke="#FF9C37" stroke-width="4" stroke-linecap="round" stroke-linejoin="round"/>
</svg>
