<svg width="28" height="29" viewBox="0 0 28 29" fill="none" xmlns="http://www.w3.org/2000/svg">
<g clip-path="url(#clip0_0_257)">
<path d="M14.2165 0.812012C8.37161 0.812012 6.66221 0.818043 6.32994 0.845615C5.13047 0.945346 4.38409 1.13425 3.57095 1.53921C2.9443 1.85047 2.45008 2.21127 1.96233 2.71703C1.07403 3.63939 0.535672 4.77413 0.340786 6.12298C0.246034 6.77781 0.21847 6.91136 0.212871 10.2561C0.210718 11.3711 0.212871 12.8384 0.212871 14.8065C0.212871 20.6482 0.219331 22.3564 0.247326 22.6881C0.344231 23.8556 0.527274 24.5901 0.914893 25.3936C1.65568 26.9315 3.07049 28.0861 4.73725 28.5169C5.31437 28.6655 5.95179 28.7474 6.7701 28.7862C7.1168 28.8012 10.6506 28.812 14.1866 28.812C17.7225 28.812 21.2585 28.8077 21.5965 28.7905C22.5441 28.7459 23.0943 28.672 23.7026 28.5148C25.3801 28.0818 26.7691 26.9445 27.525 25.385C27.905 24.6009 28.0978 23.8384 28.185 22.7318C28.2039 22.4906 28.2119 18.6441 28.2119 14.8029C28.2119 10.9609 28.2033 7.12159 28.1844 6.88034C28.0961 5.75594 27.9033 4.99987 27.511 4.20073C27.189 3.54655 26.8316 3.05802 26.3126 2.5585C25.3864 1.67362 24.2537 1.13512 22.9039 0.940392C22.2499 0.84583 22.1196 0.817828 18.7732 0.812012H14.2165Z" fill="#FF9C37"/>
<path d="M14.0004 4.41821C11.2353 4.41821 10.8883 4.4303 9.80225 4.47973C8.71834 4.52936 7.97849 4.70096 7.33111 4.95274C6.66146 5.2128 6.09342 5.56066 5.5275 6.1268C4.96115 6.69272 4.61328 7.26076 4.35238 7.9302C4.09997 8.57778 3.92815 9.31785 3.87937 10.4013C3.83079 11.4874 3.81807 11.8346 3.81807 14.5997C3.81807 17.3649 3.83037 17.7108 3.87958 18.7968C3.92943 19.8807 4.10103 20.6206 4.35259 21.268C4.61286 21.9376 4.96073 22.5057 5.52686 23.0716C6.09257 23.6379 6.66062 23.9867 7.32984 24.2467C7.97764 24.4985 8.7177 24.6701 9.8014 24.7197C10.8874 24.7691 11.2342 24.7812 13.9992 24.7812C16.7645 24.7812 17.1105 24.7691 18.1965 24.7197C19.2804 24.6701 20.0211 24.4985 20.6689 24.2467C21.3383 23.9867 21.9055 23.6379 22.4712 23.0716C23.0376 22.5057 23.3854 21.9376 23.6463 21.2682C23.8966 20.6206 24.0685 19.8805 24.1194 18.7971C24.1681 17.711 24.1809 17.3649 24.1809 14.5997C24.1809 11.8346 24.1681 11.4876 24.1194 10.4015C24.0685 9.31764 23.8966 8.57778 23.6463 7.93041C23.3854 7.26076 23.0376 6.69272 22.4712 6.1268C21.9049 5.56045 21.3385 5.21258 20.6683 4.95274C20.0192 4.70096 19.2789 4.52936 18.195 4.47973C17.109 4.4303 16.7632 4.41821 13.9972 4.41821H14.0004ZM13.0871 6.25301C13.3581 6.25258 13.6606 6.25301 14.0004 6.25301C16.7189 6.25301 17.0411 6.26276 18.1146 6.31155C19.1073 6.35694 19.6461 6.52282 20.005 6.66218C20.4801 6.84672 20.8189 7.06731 21.175 7.42367C21.5313 7.78002 21.7519 8.1194 21.9369 8.59454C22.0763 8.95302 22.2424 9.49179 22.2875 10.4845C22.3363 11.5578 22.3469 11.8802 22.3469 14.5974C22.3469 17.3146 22.3363 17.637 22.2875 18.7103C22.2421 19.703 22.0763 20.2418 21.9369 20.6002C21.7524 21.0754 21.5313 21.4137 21.175 21.7698C20.8186 22.1262 20.4803 22.3468 20.005 22.5313C19.6465 22.6713 19.1073 22.8368 18.1146 22.8822C17.0413 22.931 16.7189 22.9416 14.0004 22.9416C11.2817 22.9416 10.9595 22.931 9.88625 22.8822C8.89355 22.8364 8.35478 22.6705 7.99567 22.5311C7.52053 22.3466 7.18115 22.126 6.82479 21.7696C6.46844 21.4133 6.24784 21.0747 6.06288 20.5994C5.92352 20.2409 5.75743 19.7021 5.71225 18.7094C5.66346 17.6361 5.65371 17.3137 5.65371 14.5948C5.65371 11.876 5.66346 11.5552 5.71225 10.4819C5.75764 9.48924 5.92352 8.95047 6.06288 8.59157C6.24742 8.11643 6.46844 7.77705 6.82479 7.4207C7.18115 7.06434 7.52053 6.84375 7.99567 6.65878C8.35456 6.51879 8.89355 6.35334 9.88625 6.30773C10.8255 6.26531 11.1895 6.25258 13.0871 6.25046V6.25301ZM19.4352 7.94356C18.7607 7.94356 18.2134 8.49018 18.2134 9.16492C18.2134 9.83944 18.7607 10.3867 19.4352 10.3867C20.1098 10.3867 20.657 9.83944 20.657 9.16492C20.657 8.49039 20.1098 7.94314 19.4352 7.94314V7.94356ZM14.0004 9.37109C11.1129 9.37109 8.77179 11.7122 8.77179 14.5997C8.77179 17.4872 11.1129 19.8273 14.0004 19.8273C16.8879 19.8273 19.2282 17.4872 19.2282 14.5997C19.2282 11.7122 16.8879 9.37109 14.0004 9.37109ZM14.0004 11.2059C15.8747 11.2059 17.3943 12.7253 17.3943 14.5997C17.3943 16.474 15.8747 17.9936 14.0004 17.9936C12.126 17.9936 10.6066 16.474 10.6066 14.5997C10.6066 12.7253 12.126 11.2059 14.0004 11.2059Z" fill="white"/>
</g>
<defs>
<clipPath id="clip0_0_257">
<rect width="28" height="27.9992" fill="white" transform="translate(0 0.600098)"/>
</clipPath>
</defs>
</svg>
