<svg width="28" height="29" viewBox="0 0 28 29" fill="none" xmlns="http://www.w3.org/2000/svg">
<g clip-path="url(#clip0_0_267)">
<path d="M23.8 0.599609H4.2C1.8804 0.599609 0 2.48001 0 4.79961V24.3996C0 26.7192 1.8804 28.5996 4.2 28.5996H23.8C26.1196 28.5996 28 26.7192 28 24.3996V4.79961C28 2.48001 26.1196 0.599609 23.8 0.599609Z" fill="#FF9C37"/>
<path d="M21.4944 7.59961H6.50563C5.26851 7.59961 4.26562 8.60249 4.26562 9.83961V19.3596C4.26562 20.5967 5.26851 21.5996 6.50563 21.5996H21.4944C22.7315 21.5996 23.7344 20.5967 23.7344 19.3596V9.83961C23.7344 8.60249 22.7315 7.59961 21.4944 7.59961Z" fill="white"/>
<path d="M23.7344 7.59961L14.7109 16.5684C14.3281 17.0059 13.6719 17.0059 13.2891 16.5684L4.26562 7.59961M4.26562 21.5996L11.3203 14.5996M23.7344 21.5996L16.6797 14.5996" stroke="#FF9C37"/>
</g>
<defs>
<clipPath id="clip0_0_267">
<rect width="28" height="28" fill="white" transform="translate(0 0.599609)"/>
</clipPath>
</defs>
</svg>
