<svg width="28" height="29" viewBox="0 0 28 29" fill="none" xmlns="http://www.w3.org/2000/svg">
<g clip-path="url(#clip0_0_271)">
<path d="M4.66667 0.599609C2.08133 0.599609 0 2.68091 0 5.26621V23.9329C0 26.5182 2.08133 28.5996 4.66667 28.5996H23.3333C25.9187 28.5996 28 26.5182 28 23.9329V5.26621C28 2.68091 25.9187 0.599609 23.3333 0.599609H4.66667ZM22.0596 7.26922C22.6705 7.31861 22.8494 7.89972 22.7021 8.58164L19.9746 21.2145C19.7972 22.0361 19.1801 22.1375 18.4365 21.5951L14.5833 18.7832L12.4665 20.8271C12.1344 21.1472 11.5173 21.2403 11.334 20.679L9.74576 15.8094L5.99056 14.6246C4.5427 14.1672 5.57977 13.5185 6.07036 13.328L21.3008 7.41496C21.6044 7.29723 21.8559 7.25291 22.0596 7.26922ZM19.3571 9.89877C19.2646 9.91641 19.1606 9.9548 19.0654 10.0148L10.4727 15.4608C10.4213 15.4916 10.3643 15.4872 10.4179 15.6521L11.8079 19.9177L12.0905 17.0192C12.0963 16.9632 12.0986 16.9266 12.161 16.871L19.4163 10.3587C19.8171 9.99891 19.6344 9.84961 19.3571 9.89877Z" fill="#FF9C37"/>
</g>
<defs>
<clipPath id="clip0_0_271">
<rect width="28" height="28" fill="white" transform="translate(0 0.599609)"/>
</clipPath>
</defs>
</svg>
