<svg width="28" height="29" viewBox="0 0 28 29" fill="none" xmlns="http://www.w3.org/2000/svg">
<g clip-path="url(#clip0_0_260)">
<path d="M14.1443 7.22778C10.1697 7.22778 6.95004 10.4252 6.95004 14.3777C6.95004 15.932 7.46075 17.3975 8.32673 18.5743L7.41634 21.2389L10.1919 20.3507C11.3243 21.1057 12.701 21.5275 14.1665 21.5275C18.1412 21.5275 21.383 18.3301 21.383 14.3777C21.3608 10.4252 18.119 7.22778 14.1443 7.22778ZM18.3632 17.3309C18.1856 17.8194 17.3196 18.2857 16.9421 18.3301C16.5646 18.3745 16.5646 18.6409 14.4108 17.8194C12.2791 16.9756 10.9247 14.8218 10.8136 14.6663C10.7026 14.5331 9.94766 13.5339 9.94766 12.5125C9.94766 11.4911 10.4806 10.9804 10.6804 10.7805C10.8803 10.5807 11.1023 10.5141 11.2355 10.5141C11.3688 10.5141 11.5242 10.5363 11.6352 10.5363C11.7684 10.5363 11.9239 10.4697 12.1015 10.8915C12.2791 11.3134 12.701 12.3348 12.7454 12.4459C12.7899 12.5569 12.8343 12.6679 12.7676 12.8011C12.701 12.9344 12.6566 13.0232 12.5678 13.1564C12.4568 13.2674 12.3458 13.4229 12.2569 13.5117C12.1459 13.6227 12.0349 13.7337 12.1681 13.9336C12.3014 14.1334 12.7232 14.8218 13.345 15.3769C14.1443 16.0874 14.8327 16.3095 15.0325 16.4205C15.2324 16.5315 15.3656 16.5093 15.4766 16.3761C15.6098 16.2429 16.0095 15.7766 16.1427 15.5545C16.276 15.3547 16.4314 15.3769 16.609 15.4435C16.8089 15.5101 17.8303 16.0208 18.0523 16.1318C18.2522 16.2429 18.4076 16.2873 18.452 16.3761C18.5186 16.4205 18.5186 16.8424 18.3632 17.3309Z" fill="#FF9C37"/>
<path d="M20.9611 0.610596H7.01665C3.15305 0.610596 0 3.76615 0 7.63282V21.6106C0 25.455 3.15305 28.6106 7.01665 28.6106H20.9833C24.8469 28.6106 28 25.455 28 21.5884V7.63282C27.9778 3.76615 24.8247 0.610596 20.9611 0.610596ZM14.1443 22.8995C12.6344 22.8995 11.2355 22.5217 9.99207 21.8328L5.24029 23.3439L6.79461 18.7884C6.01745 17.4995 5.57335 15.9884 5.57335 14.3884C5.57335 9.67726 9.41475 5.87726 14.1443 5.87726C18.8739 5.87726 22.7153 9.67726 22.7153 14.3884C22.7153 19.0995 18.8739 22.8995 14.1443 22.8995Z" fill="#FF9C37"/>
</g>
<defs>
<clipPath id="clip0_0_260">
<rect width="28" height="28" fill="white" transform="translate(0 0.599609)"/>
</clipPath>
</defs>
</svg>
